<svg xmlns="http://www.w3.org/2000/svg" viewBox="0 0 512 512" width="50" height="50">
  <defs>
    <linearGradient id="a" x1="0%" y1="0%" x2="100%" y2="100%">
      <stop offset="0%" stop-color="#00c8ff"/>
      <stop offset="100%" stop-color="#00a0f2"/>
    </linearGradient>
  </defs>
  <rect width="512" height="512" rx="128" fill="url(#a)"/>
  <path fill="#fff" d="M346.4 177.9c-10.1-5.8-21.5-8.8-33-8.8-18.5 0-35.9 7.7-48.3 21.2-12.3 13.5-19.1 31.2-19.1 49.8 0 18.4 6.8 36.1 19.1 49.6 12.4 13.5 29.7 21.2 48.3 21.2 11.5 0 22.8-3 33-8.8 19.7-11.4 31.8-32.6 31.8-55.5v-13.2c-.1-22.9-12.2-44.1-31.8-55.5zm-2 68.7c0 13-6.9 25.1-18.1 31.6-5.7 3.3-12.1 5-18.8 5-10.6 0-20.5-4.4-27.5-12.1-7-7.7-10.9-17.7-10.9-28.2 0-10.6 3.9-20.7 10.9-28.4 7-7.7 16.9-12.1 27.5-12.1 6.7 0 13.1 1.7 18.8 5 11.2 6.5 18.1 18.6 18.1 31.6v7.6z"/>
  <path fill="#fff" d="M224 258.5v-5c0-22.9-12.1-44.1-31.8-55.5-10.1-5.8-21.5-8.8-33-8.8-18.5 0-35.9 7.7-48.3 21.2-12.3 13.5-19.1 31.2-19.1 49.8 0 18.4 6.8 36.1 19.1 49.6 12.4 13.5 29.7 21.2 48.3 21.2 11.5 0 22.8-3 33-8.8 19.7-11.4 31.8-32.6 31.8-55.5v-8.2zm-33.8-7.7v2.7c0 13-6.9 25.1-18.1 31.6-5.7 3.3-12.1 5-18.8 5-10.6 0-20.5-4.4-27.5-12.1-7-7.7-10.9-17.7-10.9-28.2 0-10.6 3.9-20.7 10.9-28.4 7-7.7 16.9-12.1 27.5-12.1 6.7 0 13.1 1.7 18.8 5 11.2 6.5 18.1 18.6 18.1 31.6v4.9z"/>
</svg> 